<?xml version="1.0" standalone="no"?>
<!DOCTYPE svg PUBLIC "-//W3C//DTD SVG 20010904//EN"
 "http://www.w3.org/TR/2001/REC-SVG-20010904/DTD/svg10.dtd">
<svg version="1.0" xmlns="http://www.w3.org/2000/svg"
 width="189.000000pt" height="188.000000pt" viewBox="0 0 189.000000 188.000000"
 preserveAspectRatio="xMidYMid meet">

<g transform="translate(0.000000,188.000000) scale(0.100000,-0.100000)"
fill="#000000" stroke="none">
<path d="M1530 1682 l0 -172 165 0 c91 0 165 3 165 8 0 4 -74 81 -165 172
l-165 165 0 -173z"/>
<path d="M140 1383 c-37 -14 -74 -49 -91 -87 -17 -38 -19 -76 -19 -591 0 -513
2 -553 19 -590 22 -49 48 -73 98 -91 55 -19 741 -19 796 0 87 31 116 89 117
227 l0 96 -84 5 c-141 7 -230 73 -255 188 -7 32 -11 199 -11 450 l0 400 -277
-1 c-153 0 -285 -3 -293 -6z"/>
</g>
</svg>
